Music video by David Guetta performing She Wolf (Falling to Pieces). (P) 2012 What A Music Ltd / EMI Music France, Licence exclusive EMI Music France.

                            1080p Full HD MP4 Video
                                     +
                             96 kbps/VBR M4A Audio


Cover:  
http://www.shotpix.com/images/16732508285221179221.jpg

General
Format                         : MPEG-4
Format profile                 : Base Media / Version 2
File size                      : 37.0 MiB
Duration                       : 3mn 57s
Overall bit rate mode          : Variable
Overall bit rate               : 1 306 Kbps

Video
ID                             : 1
Format                         : AVC
Format/Info                    : Advanced Video Codec
Duration                       : 3mn 57s
Bit rate mode                  : Variable
Bit rate                       : 1 175 Kbps
Width                          : 1 920 pixels
Height                         : 1 080 pixels
Display aspect ratio           : 16:9
Frame rate                     : 23.976 fps
Scan type                      : Progressive
Stream size                    : 33.2 MiB (90%)


Audio
ID                             : 2
Format                         : AAC
Format/Info                    : Advanced Audio Codec
Format profile                 : LC
Codec ID                       : 40
Duration                       : 3mn 57s
Bit rate mode                  : Variable
Bit rate                       : 128 Kbps
Maximum bit rate               : 148 Kbps
Channel(s)                     : 2 channels
Channel positions              : Front: L R
Sampling rate                  : 48.0 KHz
Stream size                    : 3.62 MiB (10%)


Screens:
 
http://www.shotpix.com/images/31688794431558513495.jpg 
http://www.shotpix.com/images/51265921935033193309.jpg



Thumbs:
 
http://www.shotpix.com/images/20705795452497940447.jpg


------------------------------------------------------------------------


Notes:

* Best played on VLC Media Player.
* Install shark007 codecs in case of any kind of problem in playback (For non-VLC Media Player users).
* Alternatively, install Core AVC codecs, the fastest decoder that there is coupled with Community Center Codec Pack and play on Windows Media Player Classic.
* Read NFO
* Help in seeding this torrent as much as you can. 




Greets to: srkfan, VYTO, MgB, staff members at ExtraTorrent, TPB,KAT, 1337x, PublicHD, Ahashare,
SilverTorrent, TorrentMafia, P2PDL, and all others


Encoder Notes: Looking For Early Access To Anything You Can Provide DVDScr, R5, DVDRips, BluRay, Direct Audio, Early Music
Releases, Seedboxes, Links, Dedicated Servers anything u can provide, Advance / Promo CDs/DVDs. If You Got anything to
offer contact me at "contact@tinym.eu"
                                          
                                    Enjoy!